# Blender v2.78 (sub 0) OBJ File: ''
# www.blender.org
mtllib road_t.mtl
o Mesh1_Group1_Model.004
v 1.125000 0.630000 1.500000
v 1.125000 0.630000 1.125000
v 1.500000 0.630000 1.125000
v 1.500000 0.630000 0.750000
v 0.750000 0.630000 0.750000
v 0.750000 0.630000 1.500000
v 1.125000 0.550000 1.500000
v 1.125000 0.550000 1.125000
v -1.125000 0.630000 1.500000
v -1.125000 0.550000 1.500000
v -1.125000 0.000000 1.500000
v 1.125000 0.000000 1.500000
v 0.750000 0.600000 1.500000
v 0.750000 0.300000 1.500000
v -0.750000 0.300000 1.500000
v -0.750000 0.600000 1.500000
v -0.750000 0.630000 1.500000
v -1.125000 0.630000 -1.500000
v -1.125000 0.550000 -1.500000
v -0.750000 0.630000 -1.500000
v 1.125000 0.000000 -1.500000
v -1.125000 0.000000 -1.500000
v -0.750000 0.600001 -1.500000
v -0.750000 0.300000 -1.500000
v 0.750000 0.300000 -1.500000
v 0.750000 0.600001 -1.500000
v 0.750000 0.630000 -1.500000
v 1.125000 0.630000 -1.500000
v 1.125000 0.550000 -1.500000
v -1.500000 0.000000 1.500000
v -1.500000 0.000000 -1.500000
v 1.500000 0.000000 -1.500000
v 1.500000 0.000000 -1.125000
v 1.500000 0.000000 1.125000
v 1.500000 0.000000 1.500000
v -1.500000 0.550000 1.500000
v -1.500000 0.550000 -1.500000
v 1.500000 0.550000 -1.500000
v 1.125000 0.550000 -1.125000
v 1.500000 0.550000 -1.125000
v 1.125000 0.630000 -1.125000
v 1.500000 0.630000 -1.125000
v 0.750000 0.630000 -0.750000
v 1.500000 0.630000 -0.750000
v 1.500000 0.550000 1.125000
v 1.500000 0.600000 -0.750000
v 1.500000 0.300000 -0.750000
v 1.500000 0.300000 0.750000
v 1.500000 0.600000 0.750000
v 1.500000 0.550000 1.500000
v 0.750000 0.600000 -0.750000
v 0.750000 0.600000 0.750000
vt -2.6250 3.0000
vt -3.0000 0.3750
vt -2.6250 0.0000
vt 0.3750 0.0000
vt 0.0000 0.5500
vt 0.0000 0.0000
vt 0.3750 0.0000
vt 0.0000 3.0000
vt 0.0000 0.0000
vt -0.3750 0.5500
vt -0.0000 0.0000
vt -0.0000 0.5500
vt -3.0000 0.0000
vt -3.0000 0.5500
vt -2.6250 0.0000
vt -3.0000 0.5500
vt -3.0000 0.0000
vt 2.6250 2.6250
vt 3.0000 3.0000
vt 2.6250 3.0000
vt 2.6250 0.3750
vt 3.0000 0.0000
vt 3.0000 0.3750
vt 2.6250 0.5500
vt 3.0000 0.0000
vt 3.0000 0.5500
vt 0.3750 0.0000
vt 0.0000 0.5500
vt 0.0000 0.0000
vt 2.6250 0.5500
vt 3.0000 0.0000
vt 3.0000 0.5500
vt -0.3750 0.0000
vt -0.0000 3.0000
vt -0.3750 3.0000
vt -3.0000 3.0000
vt -3.0000 2.6250
vt -3.0000 0.0000
vt 0.3750 0.5500
vt 0.3750 3.0000
vt -0.3750 0.0000
vt -2.6250 0.5500
vt 3.0000 2.6250
vt 2.6250 0.0000
vt 2.6250 0.0000
vt 0.3750 0.5500
vt 2.6250 0.0000
vt 0.7500 0.0000
vt 2.2500 0.7500
vt 2.2500 2.2500
vt 0.7500 0.3000
vt 2.2500 0.6000
vt 0.7500 0.6000
vt 0.7500 0.3000
vt 2.2500 0.6000
vt 0.7500 0.6000
vt -2.2500 0.3000
vt -0.7500 0.6000
vt -2.2500 0.6000
vt 2.2500 3.0000
vt 0.7500 3.0000
vt 2.2500 0.0000
vt 3.0000 0.7500
vt 3.0000 2.2500
vt 2.2500 0.3000
vt 2.2500 0.3000
vt -0.7500 0.3000
vt 2.6250 0.3750
vt 3.0000 0.7500
vt 2.2500 0.7500
vt 0.0000 0.6300
vt 0.3750 0.5500
vt 0.3750 0.6300
vt -3.0000 0.6300
vt -0.0000 0.5500
vt -0.0000 0.6300
vt 0.3750 3.0000
vt 0.7500 0.0000
vt 0.7500 3.0000
vt 2.6250 0.6300
vt 3.0000 0.5500
vt 3.0000 0.6300
vt 2.6250 2.6250
vt 2.2500 3.0000
vt 2.2500 2.2500
vt -3.0000 0.6300
vt -2.6250 0.5500
vt -2.6250 0.6300
vt 2.6250 0.6300
vt 3.0000 0.5500
vt 3.0000 0.6300
vt 3.0000 0.6000
vt 2.2500 0.6300
vt 2.2500 0.6000
vt 0.0000 0.6300
vt 3.0000 0.6000
vt 3.0000 0.6300
vt -0.7500 0.6000
vt -0.0000 0.6300
vt -0.7500 0.6300
vt -2.2500 0.6000
vt -3.0000 0.6300
vt -3.0000 0.6000
vt -3.0000 0.6000
vt -2.2500 0.6300
vt -3.0000 0.6300
vt 2.2500 0.0000
vt 2.6250 0.0000
vt 3.0000 0.3750
vt 0.0000 0.5500
vt 0.7500 0.6300
vt 0.3750 0.6300
vt 2.6250 0.6300
vt 2.2500 0.6300
vt -3.0000 0.5500
vt 0.3750 0.0000
vt -0.3750 0.6300
vt -0.7500 0.6300
vt -2.6250 0.6300
vt -2.2500 0.6300
vt 2.6250 0.5500
vt 3.0000 2.2500
vt 3.0000 2.6250
vt 2.6250 3.0000
vt -3.0000 0.5500
vt 0.7500 0.6300
vt 0.3750 0.6300
vt 2.6250 0.6300
vt 2.2500 0.6300
vt 2.6250 0.5500
vt 3.0000 0.6300
vt 0.0000 0.6000
vt -0.0000 0.6000
vt -2.2500 0.6300
vt -2.2500 0.6000
vn -0.0000 -1.0000 -0.0000
vn 0.0000 -0.0000 1.0000
vn 0.0000 1.0000 0.0000
vn 0.0000 0.0000 -1.0000
vn -1.0000 0.0000 0.0000
vn 1.0000 -0.0000 0.0000
usemtl Grass.004
s 1
f 21/1/1 34/2/1 12/3/1
f 11/4/2 36/5/2 30/6/2
f 10/7/3 37/8/3 36/9/3
f 19/10/4 31/11/4 37/12/4
f 31/13/5 36/5/5 37/14/5
f 21/15/4 38/16/4 32/17/4
f 39/18/3 38/19/3 29/20/3
f 8/21/3 50/22/3 45/23/3
f 7/24/2 35/25/2 50/26/2
f 34/27/6 50/28/6 35/29/6
f 40/30/6 32/31/6 38/32/6
f 12/3/1 11/33/1 21/1/1
f 30/6/1 31/34/1 22/35/1
f 21/1/1 32/36/1 33/37/1
f 30/6/1 22/35/1 11/33/1
f 34/2/1 35/38/1 12/3/1
f 11/33/1 22/35/1 21/1/1
f 21/1/1 33/37/1 34/2/1
f 11/4/2 10/39/2 36/5/2
f 10/7/3 19/40/3 37/8/3
f 19/10/4 22/41/4 31/11/4
f 31/13/5 30/6/5 36/5/5
f 21/15/4 29/42/4 38/16/4
f 39/18/3 40/43/3 38/19/3
f 8/21/3 7/44/3 50/22/3
f 7/24/2 12/45/2 35/25/2
f 34/27/6 45/46/6 50/28/6
f 40/30/6 33/47/6 32/31/6
usemtl Asphalt.004
f 16/48/3 52/49/3 51/50/3
f 15/51/2 13/52/2 16/53/2
f 48/54/6 46/55/6 49/56/6
f 25/57/4 23/58/4 26/59/4
f 26/60/3 23/61/3 51/50/3
f 16/48/3 13/62/3 52/49/3
f 52/49/3 49/63/3 46/64/3
f 51/50/3 23/61/3 16/48/3
f 52/49/3 46/64/3 51/50/3
f 15/51/2 14/65/2 13/52/2
f 48/54/6 47/66/6 46/55/6
f 25/57/4 24/67/4 23/58/4
usemtl Stone.004
f 2/68/3 4/69/3 5/70/3
f 1/71/6 8/72/6 2/73/6
f 11/4/2 12/45/2 15/51/2
f 18/74/5 10/75/5 9/76/5
f 18/77/3 17/78/3 20/79/3
f 21/15/4 22/41/4 25/57/4
f 41/80/6 29/81/6 28/82/6
f 41/83/3 27/84/3 43/85/3
f 42/86/4 39/87/4 41/88/4
f 34/27/6 33/47/6 48/54/6
f 2/89/2 45/90/2 3/91/2
f 46/92/2 43/93/2 51/94/2
f 17/95/6 23/96/6 20/97/6
f 52/98/5 6/99/5 5/100/5
f 52/101/4 4/102/4 49/103/4
f 26/104/5 43/105/5 27/106/5
f 6/107/3 1/108/3 2/68/3
f 2/68/3 3/109/3 4/69/3
f 5/70/3 6/107/3 2/68/3
f 1/71/6 7/110/6 8/72/6
f 17/111/2 9/112/2 16/53/2
f 7/24/2 1/113/2 13/52/2
f 6/114/2 13/52/2 1/113/2
f 12/45/2 7/24/2 14/65/2
f 9/112/2 10/39/2 16/53/2
f 15/51/2 16/53/2 10/39/2
f 7/24/2 13/52/2 14/65/2
f 15/51/2 10/39/2 11/4/2
f 12/45/2 14/65/2 15/51/2
f 18/74/5 19/115/5 10/75/5
f 18/77/3 9/116/3 17/78/3
f 19/10/4 18/117/4 23/58/4
f 20/118/4 23/58/4 18/117/4
f 22/41/4 19/10/4 24/67/4
f 28/119/4 29/42/4 26/59/4
f 26/59/4 27/120/4 28/119/4
f 25/57/4 26/59/4 29/42/4
f 19/10/4 23/58/4 24/67/4
f 25/57/4 29/42/4 21/15/4
f 22/41/4 24/67/4 25/57/4
f 41/80/6 39/121/6 29/81/6
f 44/122/3 42/123/3 41/83/3
f 41/83/3 28/124/3 27/84/3
f 43/85/3 44/122/3 41/83/3
f 42/86/4 40/125/4 39/87/4
f 4/126/6 3/127/6 49/56/6
f 33/47/6 40/30/6 47/66/6
f 42/128/6 44/129/6 46/55/6
f 42/128/6 46/55/6 40/30/6
f 3/127/6 45/46/6 49/56/6
f 49/56/6 45/46/6 48/54/6
f 40/30/6 46/55/6 47/66/6
f 48/54/6 45/46/6 34/27/6
f 33/47/6 47/66/6 48/54/6
f 2/89/2 8/130/2 45/90/2
f 46/92/2 44/131/2 43/93/2
f 17/95/6 16/132/6 23/96/6
f 52/98/5 13/133/5 6/99/5
f 52/101/4 5/134/4 4/102/4
f 26/104/5 51/135/5 43/105/5
