# Blender v2.78 (sub 0) OBJ File: ''
# www.blender.org
mtllib road_straight.mtl
o Mesh1_Group1_Model.005
v -1.500000 0.550000 1.500000
v -1.500000 0.550000 1.125000
v -1.500000 0.000000 1.125000
v -1.500000 0.000000 1.500000
v 1.500000 0.550000 1.500000
v 1.500000 0.550000 1.125000
v 1.500000 0.000000 1.500000
v 1.500000 0.000000 1.125000
v -1.500000 0.000000 -1.125000
v -1.500000 0.000000 -1.500000
v 1.500000 0.000000 -1.500000
v 1.500000 0.000000 -1.125000
v -1.500000 0.630000 1.125000
v -1.500000 0.630000 0.750000
v -1.500000 0.600000 0.750000
v -1.500000 0.300000 0.750000
v -1.500000 0.300000 -0.750000
v -1.500000 0.600000 -0.750000
v -1.500000 0.630000 -0.750000
v -1.500000 0.630000 -1.125000
v -1.500000 0.550000 -1.125000
v 1.500000 0.630000 1.125000
v 1.500000 0.630000 0.750000
v 1.500000 0.550000 -1.125000
v 1.500000 0.630000 -1.125000
v 1.500000 0.630000 -0.750000
v 1.500000 0.600000 -0.750000
v 1.500000 0.300000 -0.750000
v 1.500000 0.300000 0.750000
v 1.500000 0.600000 0.750000
v 1.500000 0.550000 -1.500000
v -1.500000 0.550000 -1.500000
vt 0.0000 0.5500
vt -0.3750 0.0000
vt 0.0000 0.0000
vt 3.0000 0.3750
vt 0.0000 0.0000
vt 3.0000 0.0000
vt 0.3750 0.0000
vt 0.0000 0.5500
vt 0.0000 0.0000
vt -0.0000 2.6250
vt -3.0000 2.6250
vt -3.0000 0.3750
vt 2.6250 0.5500
vt 3.0000 0.0000
vt 3.0000 0.5500
vt 0.0000 2.6250
vt 3.0000 3.0000
vt 0.0000 3.0000
vt -3.0000 0.0000
vt -2.6250 0.5500
vt -3.0000 0.5500
vt -0.0000 0.0000
vt -3.0000 0.5500
vt -3.0000 0.0000
vt 3.0000 -0.0000
vt -0.3750 0.5500
vt 0.0000 0.3750
vt 0.3750 0.5500
vt -3.0000 0.0000
vt -0.0000 0.3750
vt -0.0000 3.0000
vt -3.0000 3.0000
vt 2.6250 0.0000
vt 3.0000 2.6250
vt -2.6250 0.0000
vt -0.0000 0.5500
vt 3.0000 0.5500
vt 0.0000 2.2500
vt 3.0000 0.7500
vt 3.0000 2.2500
vt -2.2500 0.3000
vt -0.7500 0.6000
vt -2.2500 0.6000
vt 0.7500 0.3000
vt 2.2500 0.6000
vt 0.7500 0.6000
vt 0.0000 0.7500
vt -0.7500 0.3000
vt 2.2500 0.3000
vt 0.0000 0.6300
vt 3.0000 0.5500
vt 3.0000 0.6300
vt 0.0000 0.3750
vt 3.0000 0.7500
vt 0.0000 0.7500
vt -3.0000 0.6300
vt -0.0000 0.5500
vt -0.0000 0.6300
vt 3.0000 2.6250
vt 0.0000 2.2500
vt 3.0000 2.2500
vt 3.0000 0.6000
vt 0.0000 0.6300
vt 0.0000 0.6000
vt -0.0000 0.6000
vt -3.0000 0.6300
vt -3.0000 0.6000
vt -0.3750 0.6300
vt -0.7500 0.6300
vt -2.6250 0.6300
vt -2.2500 0.6300
vt 0.0000 0.5500
vt 3.0000 0.3750
vt 2.6250 0.6300
vt 2.2500 0.6300
vt 0.3750 0.6300
vt 0.7500 0.6300
vt -3.0000 0.5500
vt 0.0000 2.6250
vt 3.0000 0.6300
vt -0.0000 0.6300
vn -1.0000 0.0000 0.0000
vn 0.0000 1.0000 0.0000
vn 1.0000 -0.0000 0.0000
vn 0.0000 -1.0000 -0.0000
vn 0.0000 0.0000 -1.0000
vn 0.0000 -0.0000 1.0000
usemtl Grass.005
s 1
f 1/1/1 3/2/1 4/3/1
f 6/4/2 1/5/2 5/6/2
f 8/7/3 5/8/3 7/9/3
f 9/10/4 12/11/4 8/12/4
f 24/13/3 11/14/3 31/15/3
f 21/16/2 31/17/2 32/18/2
f 10/19/1 21/20/1 32/21/1
f 10/22/5 31/23/5 11/24/5
f 7/25/6 1/1/6 4/3/6
f 1/1/1 2/26/1 3/2/1
f 6/4/2 2/27/2 1/5/2
f 8/7/3 6/28/3 5/8/3
f 7/29/4 4/3/4 3/30/4
f 9/10/4 10/31/4 11/32/4
f 7/29/4 3/30/4 8/12/4
f 11/32/4 12/11/4 9/10/4
f 8/12/4 3/30/4 9/10/4
f 24/13/3 12/33/3 11/14/3
f 21/16/2 24/34/2 31/17/2
f 10/19/1 9/35/1 21/20/1
f 10/22/5 32/36/5 31/23/5
f 7/25/6 5/37/6 1/1/6
usemtl Asphalt.005
f 18/38/2 30/39/2 27/40/2
f 17/41/1 15/42/1 18/43/1
f 29/44/3 27/45/3 30/46/3
f 18/38/2 15/47/2 30/39/2
f 17/41/1 16/48/1 15/42/1
f 29/44/3 28/49/3 27/45/3
usemtl Stone.005
f 9/35/1 3/2/1 17/41/1
f 13/50/6 6/51/6 22/52/6
f 13/53/2 23/54/2 14/55/2
f 8/7/3 12/33/3 29/44/3
f 25/56/5 21/57/5 20/58/5
f 25/59/2 19/60/2 26/61/2
f 27/62/6 19/63/6 18/64/6
f 15/65/5 23/66/5 30/67/5
f 3/2/1 2/26/1 16/48/1
f 13/68/1 14/69/1 15/42/1
f 13/68/1 15/42/1 2/26/1
f 20/70/1 21/20/1 18/43/1
f 18/43/1 19/71/1 20/70/1
f 17/41/1 18/43/1 21/20/1
f 2/26/1 15/42/1 16/48/1
f 17/41/1 21/20/1 9/35/1
f 3/2/1 16/48/1 17/41/1
f 13/50/6 2/72/6 6/51/6
f 13/53/2 22/73/2 23/54/2
f 12/33/3 24/13/3 28/49/3
f 25/74/3 26/75/3 27/45/3
f 25/74/3 27/45/3 24/13/3
f 22/76/3 6/28/3 30/46/3
f 30/46/3 23/77/3 22/76/3
f 29/44/3 30/46/3 6/28/3
f 24/13/3 27/45/3 28/49/3
f 29/44/3 6/28/3 8/7/3
f 12/33/3 28/49/3 29/44/3
f 25/56/5 24/78/5 21/57/5
f 25/59/2 20/79/2 19/60/2
f 27/62/6 26/80/6 19/63/6
f 15/65/5 14/81/5 23/66/5
